<svg width="202" height="201" viewBox="0 0 202 201" fill="none" xmlns="http://www.w3.org/2000/svg">
<g clip-path="url(#clip0_1281_59)">
<path d="M162.222 48.3006L168.527 39.6565L161.908 31.2371L167.406 20.5211L157.79 26.0067L150.424 19.6767L143.295 26.2589L135.925 19.9289L128.796 26.5111L121.43 20.181L114.304 26.7631L106.937 20.4331L99.8085 27.0152L92.4451 20.6851L85.3162 27.2673L77.9496 20.9372L70.824 27.5194L63.4574 21.1894L56.3285 27.7715L48.9619 21.4414L41.8363 28.0235L32.0284 22.8758L37.9175 33.4003L31.6121 42.0445L38.2317 50.4638L31.9262 59.1079L38.5458 67.5272L32.2404 76.1714L38.86 84.5907L32.5545 93.2349L39.1741 101.651L32.8686 110.295L39.4883 118.715L33.1828 127.355L39.8023 135.775L33.4969 144.419L40.1165 152.835L33.811 161.479L40.4306 169.898L34.9326 180.618L44.5479 175.129L51.9145 181.459L59.0433 174.877L66.41 181.207L73.5389 174.625L80.9054 180.955L88.0344 174.373L95.401 180.703L102.527 174.12L109.893 180.451L117.022 173.868L124.385 180.198L131.514 173.616L138.881 179.946L146.01 173.364L153.373 179.694L160.502 173.112L170.31 178.26L164.454 168.148L170.726 159.091L164.107 150.672L170.412 142.028L163.793 133.608L170.098 124.964L163.478 116.545L169.784 107.904L163.164 99.4846L169.47 90.8437L162.85 82.4244L169.156 73.7803L162.536 65.3609L168.842 56.72L162.222 48.3006ZM144.741 141.703L57.8651 143.214L56.7435 47.678L143.619 46.1668L144.741 141.703Z" fill="#FFF0D9"/>
<path d="M47.2062 36.3256L49.6054 166.645L155.129 164.81L152.73 34.49L47.2062 36.3256ZM144.741 141.703L57.8653 143.214L56.7437 47.6778L143.62 46.1667L144.741 141.703Z" fill="#F2CFA9"/>
<path d="M34.7497 181.065C34.6938 181.043 34.6418 181.01 34.5964 180.966C34.441 180.818 34.4018 180.586 34.4996 180.395L39.8574 169.953L33.4295 161.779C33.2955 161.609 33.2912 161.37 33.4188 161.195L39.5084 152.847L33.1155 144.717C32.9814 144.547 32.9771 144.308 33.1048 144.133L39.1941 135.785L32.8012 127.656C32.6671 127.485 32.6628 127.246 32.7905 127.071L38.8802 118.724L32.4872 110.593C32.3531 110.423 32.3488 110.184 32.4765 110.009L38.5659 101.662L32.173 93.5328C32.0389 93.3624 32.0346 93.1236 32.1623 92.9484L38.252 84.6012L31.8591 76.4712C31.725 76.3008 31.7207 76.062 31.8484 75.8868L37.9379 67.5384L31.5451 59.4074C31.411 59.237 31.4067 58.9983 31.5343 58.8231L37.6238 50.4747L31.2308 42.3433C31.0967 42.1729 31.0924 41.9341 31.2201 41.759L37.3428 33.3639L31.6036 23.112C31.4988 22.9248 31.5294 22.6914 31.6791 22.5377C31.8286 22.3842 32.0617 22.3431 32.2518 22.4474L41.7565 27.4357L48.6334 21.0856C48.814 20.9183 49.0925 20.9149 49.2784 21.0743L56.3165 27.1225L63.1272 20.8335C63.3078 20.6661 63.587 20.6626 63.7722 20.822L70.8104 26.8703L77.6211 20.5812C77.8017 20.4139 78.0808 20.4107 78.2661 20.5699L85.3041 26.6184L92.1141 20.3294C92.295 20.1621 92.5737 20.1584 92.7591 20.318L99.7973 26.3663L106.607 20.077C106.788 19.9097 107.067 19.9064 107.252 20.0656L114.291 26.1141L121.101 19.825C121.282 19.6577 121.561 19.6538 121.746 19.8136L128.785 25.8618L135.597 19.573C135.778 19.4055 136.057 19.4021 136.242 19.5615L143.281 25.6097L150.093 19.3206C150.275 19.1535 150.553 19.1494 150.738 19.3093L157.847 25.4165L167.164 20.0995C167.351 19.9932 167.585 20.0223 167.74 20.1702C167.895 20.3182 167.934 20.5506 167.836 20.7413L162.479 31.184L168.907 39.3577C169.041 39.5282 169.045 39.7669 168.917 39.9421L162.828 48.29L169.221 56.4197C169.355 56.5901 169.359 56.8289 169.231 57.004L163.142 65.3513L169.535 73.4814C169.669 73.6518 169.673 73.8905 169.546 74.0657L163.456 82.4129L169.849 90.543C169.983 90.7134 169.987 90.9521 169.86 91.1274L163.77 99.4749L170.163 107.604C170.297 107.774 170.301 108.013 170.174 108.188L164.084 116.535L170.477 124.665C170.611 124.836 170.615 125.074 170.488 125.25L164.398 133.598L170.791 141.729C170.925 141.899 170.93 142.138 170.802 142.313L164.712 150.662L171.105 158.793C171.237 158.96 171.244 159.193 171.123 159.368L165.026 168.172L170.729 178.018C170.837 178.205 170.809 178.441 170.66 178.596C170.51 178.752 170.277 178.794 170.085 178.689L160.58 173.701L153.703 180.051C153.522 180.218 153.244 180.223 153.058 180.062L146.019 174.014L139.209 180.303C139.028 180.47 138.75 180.474 138.564 180.314L131.526 174.266L124.715 180.555C124.535 180.723 124.256 180.727 124.07 180.567L117.032 174.518L110.222 180.807C110.041 180.975 109.763 180.979 109.577 180.819L102.539 174.77L95.7287 181.059C95.5481 181.227 95.2694 181.231 95.0837 181.071L88.0459 175.022L81.2353 181.311C81.0547 181.479 80.7759 181.483 80.5903 181.323L73.5511 175.274L66.7393 181.564C66.5587 181.731 66.2801 181.735 66.0943 181.575L59.0552 175.526L52.2431 181.816C52.0625 181.983 51.7841 181.987 51.5981 181.827L44.4898 175.72L35.1719 181.037C35.0399 181.112 34.8844 181.12 34.7497 181.065ZM34.4187 161.469L40.8115 169.599C40.9285 169.748 40.9482 169.951 40.8619 170.119L36.1064 179.388L44.3053 174.71C44.4835 174.608 44.7073 174.63 44.8618 174.763L51.9019 180.811L58.714 174.522C58.8947 174.355 59.1732 174.351 59.359 174.511L66.3981 180.559L73.2099 174.27C73.3905 174.103 73.6693 174.099 73.8549 174.259L80.8941 180.307L87.7047 174.018C87.8853 173.851 88.1632 173.846 88.35 174.007L95.3875 180.055L102.197 173.766C102.378 173.599 102.657 173.595 102.843 173.755L109.881 179.803L116.691 173.514C116.872 173.346 117.151 173.343 117.336 173.502L124.374 179.551L131.185 173.262C131.366 173.094 131.645 173.091 131.83 173.251L138.868 179.299L145.678 173.01C145.859 172.843 146.138 172.839 146.323 172.998L153.362 179.047L160.172 172.758C160.323 172.618 160.543 172.584 160.727 172.685L169.051 177.053L164.033 168.391C163.939 168.229 163.948 168.027 164.054 167.873L170.122 159.11L163.724 150.971C163.59 150.801 163.585 150.562 163.713 150.387L169.802 142.039L163.41 133.908C163.276 133.737 163.271 133.498 163.399 133.323L169.488 124.975L163.096 116.845C162.961 116.674 162.957 116.436 163.085 116.26L169.174 107.914L162.781 99.7843C162.647 99.6139 162.643 99.3752 162.77 99.2L168.86 90.8525L162.467 82.7224C162.333 82.552 162.329 82.3132 162.456 82.1381L168.546 73.7908L162.153 65.6608C162.019 65.4904 162.015 65.2516 162.143 65.0765L168.232 56.7291L161.839 48.5994C161.705 48.4289 161.701 48.1902 161.828 48.015L167.918 39.6674L161.525 31.5377C161.408 31.3891 161.388 31.1857 161.474 31.0176L166.23 21.7488L158.031 26.4272C157.853 26.5286 157.629 26.5064 157.475 26.3737L150.434 20.3253L143.622 26.6144C143.441 26.7816 143.163 26.7861 142.977 26.6257L135.938 20.5775L129.126 26.8664C128.945 27.0336 128.667 27.0379 128.481 26.8778L121.442 20.8296L114.632 27.1187C114.451 27.286 114.173 27.2901 113.987 27.13L106.949 21.0815L100.139 27.3708C99.958 27.5382 99.6795 27.5423 99.4936 27.3822L92.4555 21.334L85.6455 27.623C85.4648 27.7904 85.1858 27.7942 85.0005 27.6344L77.9624 21.5858L71.1518 27.8749C70.9711 28.0423 70.6924 28.0463 70.5068 27.8863L63.4686 21.838L56.6579 28.1271C56.4773 28.2945 56.1984 28.2988 56.0129 28.1385L48.9747 22.0902L42.1641 28.3793C42.0136 28.5184 41.7954 28.5527 41.6096 28.4521L33.2464 24.0631L38.3405 33.1626C38.4331 33.3278 38.421 33.5314 38.3095 33.6842L32.22 42.0342L38.613 50.1656C38.7471 50.336 38.7514 50.5748 38.6237 50.75L32.5342 59.0984L38.927 67.2294C39.0611 67.3998 39.0654 67.6386 38.9377 67.8138L32.8482 76.1622L39.2411 84.2921C39.3752 84.4625 39.3795 84.7013 39.2519 84.8764L33.1622 93.2237L39.5552 101.352C39.6892 101.523 39.6936 101.762 39.5659 101.937L33.4764 110.284L39.8694 118.415C40.0035 118.585 40.0078 118.824 39.8802 118.999L33.7904 127.346L40.1834 135.476C40.3175 135.647 40.3218 135.885 40.1942 136.06L34.1047 144.408L40.4977 152.538C40.6318 152.708 40.6361 152.947 40.5085 153.122L34.4187 161.469Z" fill="#AB815B"/>
<path d="M49.4246 167.095C49.2496 167.025 49.1247 166.855 49.1209 166.655L46.7215 36.334C46.7192 36.2056 46.768 36.0815 46.8574 35.9892C46.9466 35.8966 47.0687 35.8437 47.1974 35.8413L152.721 34.0056C152.85 34.0042 152.974 34.0524 153.067 34.1418C153.16 34.2309 153.213 34.353 153.215 34.4815L155.615 164.803C155.617 164.931 155.568 165.055 155.479 165.148C155.389 165.24 155.267 165.293 155.139 165.295L49.6147 167.131C49.5475 167.132 49.4832 167.119 49.4246 167.095ZM47.6997 36.8014L50.0814 166.154L154.636 164.335L152.255 34.9824L47.6997 36.8014Z" fill="#AB815B"/>
<path d="M57.9576 142.968L56.8935 48.1666L143.528 45.9599L144.682 141.876L57.9576 142.968Z" fill="white"/>
<path d="M57.6833 143.664C57.6256 143.641 57.5725 143.606 57.5271 143.562C57.4346 143.472 57.3815 143.349 57.3799 143.22L56.2583 47.6836C56.2552 47.4174 56.4677 47.199 56.7342 47.1942L143.61 45.6829C143.74 45.6811 143.865 45.7306 143.957 45.8201C144.049 45.91 144.103 46.0331 144.104 46.1623L145.226 141.699C145.229 141.965 145.016 142.183 144.75 142.188L57.8737 143.699C57.8079 143.7 57.7431 143.688 57.6833 143.664ZM57.2335 48.1543L58.3436 142.722L144.25 141.228L143.14 46.6598L57.2335 48.1543Z" fill="#AB815B"/>
<g opacity="0.8">
<path d="M25.0198 59.5574L73.4368 26.5264L68.7454 25.8298L69.8544 21.2899L65.4548 20.2715L66.2698 16.0503L61.9624 15.915L63.4053 11.8633L14.9884 44.8943L18.8199 44.1654L17.7977 49.0008L22.533 48.8443L20.9962 53.6761L26.0562 54.2438L25.0198 59.5574Z" fill="#AB815B"/>
</g>
<g opacity="0.8">
<path d="M135.594 196.566L184.011 163.535L179.32 162.839L180.429 158.299L176.029 157.28L176.844 153.059L172.537 152.924L173.98 148.872L125.563 181.903L129.394 181.174L128.372 186.01L133.107 185.853L131.57 190.685L136.63 191.253L135.594 196.566Z" fill="#AB815B"/>
</g>
<path d="M84.7065 164.455C83.6508 164.478 82.6209 164.045 81.6168 163.155C81.4718 163.11 81.3494 163.005 81.2497 162.839C81.1505 162.697 81.0519 162.579 80.9538 162.486C80.7847 162.441 80.6752 162.372 80.625 162.277C80.5749 162.182 80.5243 162.063 80.4731 161.92C80.4725 161.896 80.4477 161.861 80.3987 161.814C80.3742 161.79 80.3496 161.767 80.3251 161.743C80.3006 161.72 80.2761 161.696 80.2515 161.673C80.2275 161.673 80.2155 161.674 80.2155 161.674C80.239 161.649 80.2507 161.637 80.2507 161.637C80.1505 161.447 80.0876 161.317 80.062 161.245C80.0358 161.15 79.9372 161.032 79.766 160.892C79.717 160.845 79.6674 160.774 79.6173 160.679C79.5906 160.559 79.5645 160.464 79.5389 160.392C79.2611 159.775 79.007 159.144 78.7766 158.501C78.5697 157.833 78.4585 157.152 78.443 156.456C78.4377 156.216 78.5057 156.034 78.647 155.911C78.7883 155.788 78.9429 155.725 79.1109 155.721C79.4228 155.714 79.6302 155.865 79.7331 156.175C79.7832 156.27 79.8336 156.377 79.8843 156.496C79.9584 156.59 79.9965 156.685 79.9987 156.781L80.0067 157.141C80.0099 157.285 80.0467 157.32 80.117 157.247C80.2109 157.149 80.2711 157.159 80.2978 157.279C80.3495 157.446 80.3879 157.553 80.413 157.6C80.4375 157.624 80.5348 157.682 80.7049 157.774C80.755 157.869 80.8172 157.963 80.8913 158.058C80.9654 158.152 81.0395 158.247 81.1136 158.341L81.1152 158.413C81.1184 158.557 81.1688 158.664 81.2664 158.734C81.3634 158.78 81.4728 158.837 81.5943 158.906L82.0734 159.4C82.0505 159.448 82.0396 159.497 82.0406 159.545C82.0438 159.689 82.118 159.783 82.263 159.828C82.432 159.872 82.577 159.917 82.6981 159.962C82.7226 159.986 82.8572 160.103 83.102 160.313C83.3702 160.499 83.5528 160.615 83.6499 160.661C83.7714 160.73 83.9053 160.811 84.0514 160.904C84.1969 160.973 84.3422 161.03 84.4873 161.075C84.5353 161.074 84.5838 161.096 84.6328 161.143C85.0685 161.302 85.4662 161.377 85.8261 161.369C86.1621 161.361 86.5444 161.281 86.9731 161.127C87.0445 161.102 87.1042 161.088 87.1522 161.087C87.2237 161.062 87.2714 161.049 87.2954 161.048C87.3674 161.047 87.4039 161.07 87.4049 161.118C87.4076 161.238 87.3023 161.36 87.089 161.485C87.0901 161.533 87.0546 161.558 86.9827 161.559C86.8872 161.585 86.792 161.623 86.6971 161.674C86.6022 161.724 86.5065 161.738 86.41 161.716C86.29 161.719 86.1938 161.709 86.1213 161.686C86.0488 161.664 85.9536 161.702 85.8358 161.801C85.5233 161.784 85.1738 161.719 84.7872 161.608C84.4006 161.497 84.0738 161.372 83.8066 161.234C83.7789 161.066 83.6691 160.985 83.4771 160.989C83.2846 160.969 83.1273 160.913 83.0052 160.819C82.9066 160.702 82.8197 160.572 82.7445 160.429C82.6933 160.286 82.5731 160.277 82.3838 160.401C82.2857 160.307 82.2001 160.237 82.127 160.191C82.0534 160.12 81.9447 160.087 81.8007 160.09C81.7516 160.043 81.6786 159.997 81.5816 159.951C81.5085 159.905 81.4829 159.833 81.5048 159.737C81.4072 159.667 81.2126 159.551 80.9209 159.389C80.6527 159.203 80.4941 159.087 80.445 159.04C80.2237 158.805 79.9792 158.606 79.7116 158.444L79.602 158.375C79.9347 159.303 80.3269 160.207 80.7786 161.085C81.2542 161.963 81.9301 162.668 82.8061 163.201C83.2194 163.431 83.5955 163.615 83.9347 163.752C84.2983 163.911 84.6481 163.988 84.984 163.98C85.6079 163.966 86.2608 163.64 86.9427 163C87.5303 162.435 88.0555 161.763 88.5183 160.985C88.9805 160.182 89.394 159.345 89.7587 158.473C90.1234 157.6 90.4414 156.789 90.7128 156.039C90.7597 155.99 90.7949 155.953 90.8184 155.929C90.8418 155.904 90.8653 155.879 90.8888 155.855C90.957 155.685 91.0007 155.492 91.0199 155.276C91.0626 155.035 91.106 154.83 91.1503 154.661C91.267 154.514 91.3713 154.344 91.463 154.15C91.5781 153.931 91.6336 153.726 91.6293 153.534L91.6973 153.352C91.7447 153.327 91.7319 153.292 91.6589 153.245C91.5858 153.199 91.633 153.162 91.8005 153.134C91.9625 152.866 92.0527 152.6 92.0708 152.336C92.1124 152.047 92.1798 151.841 92.2731 151.719C92.3424 151.598 92.412 151.488 92.4818 151.39C92.5517 151.293 92.561 151.173 92.5098 151.03C92.5317 150.933 92.5986 150.704 92.7106 150.341C92.846 149.954 92.9926 149.531 93.1504 149.071C93.3082 148.611 93.4434 148.212 93.5559 147.874C93.6679 147.511 93.7233 147.306 93.7222 147.258L94.0949 146.205C93.4236 146.244 92.7286 146.296 92.0098 146.36C91.3151 146.423 90.6336 146.546 89.9656 146.729C89.989 146.705 89.9765 146.681 89.928 146.658C89.8789 146.611 89.8424 146.588 89.8184 146.588L89.7816 146.553C89.6851 146.531 89.6616 146.556 89.7112 146.627C89.7843 146.673 89.7733 146.721 89.6784 146.772C89.463 146.8 89.2124 146.866 88.9266 146.968C88.6643 147.046 88.4251 147.088 88.2092 147.092C88.1138 147.118 88.006 147.133 87.8861 147.136C87.7656 147.114 87.6453 147.105 87.5254 147.108C87.166 147.14 86.8082 147.244 86.452 147.42C86.1199 147.595 85.7751 147.747 85.4179 147.875L84.7741 148.069C84.5128 148.195 84.2267 148.285 83.9159 148.34C83.605 148.395 83.319 148.485 83.0577 148.611L83.0945 148.646C83.0001 148.721 82.8812 148.771 82.7378 148.798C82.5944 148.826 82.4632 148.865 82.3443 148.915C82.0585 149.018 81.7612 149.144 81.4525 149.295C81.1673 149.422 80.8697 149.536 80.5599 149.639C80.3931 149.691 80.2262 149.743 80.0593 149.794C79.9158 149.821 79.749 149.873 79.5586 149.949C79.4632 149.976 79.3797 150.001 79.3083 150.027C79.2363 150.029 79.1523 150.031 79.0563 150.033C78.8404 150.037 78.6474 149.994 78.4773 149.902C78.3802 149.856 78.2333 149.727 78.0366 149.515C77.8633 149.279 77.714 149.042 77.5887 148.805C77.4628 148.544 77.4106 148.353 77.4319 148.232C77.4543 148.16 77.6084 148.072 77.8942 147.97C78.1794 147.844 78.5129 147.728 78.8947 147.624C79.2759 147.495 79.6217 147.391 79.932 147.313C80.2658 147.209 80.4804 147.144 80.5759 147.118C80.6233 147.093 80.7548 147.066 80.9702 147.037C81.1851 146.985 81.3056 147.006 81.3317 147.101C81.3568 147.149 81.3344 147.221 81.2645 147.319C81.1941 147.392 81.1355 147.454 81.0886 147.503C81.0891 147.527 81.0542 147.576 80.9838 147.649C80.9374 147.722 80.9379 147.746 80.9854 147.721L82.2379 147.369C82.4288 147.317 82.6564 147.3 82.9209 147.318C83.2088 147.312 83.4237 147.259 83.5655 147.16C83.6125 147.111 83.6354 147.062 83.6343 147.014C83.6572 146.966 83.7047 146.941 83.7767 146.939C83.9436 146.887 84.2184 146.833 84.6013 146.777C85.0081 146.719 85.2584 146.642 85.3523 146.544C85.5432 146.491 85.7466 146.463 85.9625 146.458C86.1779 146.429 86.3686 146.365 86.5344 146.265C86.6058 146.24 86.8327 146.187 87.215 146.106C87.6213 146.025 88.0756 145.943 88.5779 145.86C89.1036 145.752 89.5699 145.67 89.9767 145.613C90.383 145.532 90.6222 145.49 90.6941 145.489L90.7301 145.488C90.8261 145.486 90.9218 145.472 91.0173 145.445C91.1127 145.419 91.2084 145.405 91.3044 145.403C91.4963 145.399 91.5942 145.481 91.5979 145.649C91.6224 145.672 91.6827 145.683 91.7787 145.681C91.9946 145.676 92.1612 145.612 92.2785 145.489C92.374 145.463 92.4452 145.426 92.4921 145.377C92.563 145.327 92.6462 145.289 92.7416 145.263C93.0045 145.209 93.2802 145.191 93.5686 145.209C93.8805 145.202 94.1565 145.196 94.3964 145.19C94.5564 144.827 94.731 144.583 94.9203 144.458C95.109 144.31 95.3953 144.232 95.7793 144.223C96.0432 144.217 96.2141 144.346 96.2919 144.608C96.3693 144.846 96.4101 145.061 96.4143 145.253C96.5343 145.251 96.6903 145.247 96.8822 145.243C97.0736 145.215 97.2773 145.198 97.4933 145.193C97.7092 145.189 97.9134 145.196 98.1059 145.216C98.3224 145.235 98.4911 145.267 98.6122 145.313C98.6346 145.24 98.694 145.215 98.7905 145.237C98.9105 145.234 98.9948 145.244 99.0433 145.267C99.2374 145.359 99.4424 145.402 99.6583 145.397C99.8977 145.368 100.126 145.399 100.345 145.49C100.562 145.557 100.768 145.637 100.962 145.728C101.156 145.82 101.362 145.9 101.579 145.967C101.772 146.01 101.918 146.079 102.016 146.173C102.138 146.266 102.285 146.371 102.455 146.487C102.65 146.627 102.773 146.756 102.824 146.875C102.824 146.875 102.837 146.923 102.863 147.018C102.889 147.09 102.865 147.114 102.793 147.092C102.769 147.093 102.733 147.093 102.685 147.094C102.66 147.071 102.636 147.071 102.613 147.096C102.615 147.192 102.653 147.275 102.726 147.346C102.775 147.368 102.823 147.367 102.87 147.342C102.942 147.317 102.989 147.292 103.013 147.267C103.109 147.265 103.158 147.312 103.16 147.408C103.186 147.503 103.212 147.599 103.238 147.694C103.317 147.981 103.359 148.268 103.365 148.556C103.372 148.868 103.296 149.217 103.137 149.605C103.001 149.992 102.805 150.333 102.547 150.626C102.289 150.896 101.98 151.035 101.62 151.043C101.5 151.046 101.404 151.036 101.332 151.013C101.066 150.947 100.933 150.878 100.931 150.806C100.929 150.734 101.047 150.612 101.283 150.438C101.448 150.315 101.589 150.18 101.706 150.033C101.822 149.862 101.926 149.692 102.019 149.522C102.184 149.398 102.311 149.155 102.399 148.793C102.487 148.431 102.527 148.094 102.52 147.782C102.515 147.542 102.474 147.351 102.399 147.209C102.375 147.209 102.264 147.08 102.067 146.82C101.893 146.56 101.686 146.42 101.445 146.402C101.324 146.356 101.191 146.311 101.046 146.267C100.925 146.221 100.804 146.188 100.684 146.167C100.586 146.073 100.392 146.005 100.103 145.964C99.838 145.921 99.5613 145.892 99.2728 145.874C98.9844 145.856 98.7682 145.849 98.6242 145.852C98.5042 145.855 98.2885 145.872 97.9772 145.903C97.6652 145.91 97.3536 145.929 97.0422 145.96C96.7303 145.967 96.5143 145.971 96.3943 145.974C96.1923 146.603 95.8286 146.983 95.3034 147.115C95.2811 147.187 95.1907 147.441 95.0323 147.877C94.874 148.312 94.7047 148.796 94.5245 149.328C94.3437 149.837 94.1739 150.296 94.0151 150.708C93.8796 151.095 93.8005 151.313 93.7775 151.362C93.7077 151.459 93.6378 151.557 93.568 151.654C93.4981 151.752 93.4526 151.861 93.4312 151.981C93.4126 152.222 93.3121 152.56 93.1297 152.996C92.9714 153.432 92.789 153.868 92.5827 154.305C92.3998 154.717 92.2513 155.056 92.1372 155.323C91.9954 155.422 91.8773 155.509 91.7829 155.583C91.688 155.633 91.7144 155.741 91.8621 155.905C91.7939 156.075 91.7238 156.16 91.6518 156.162C91.5793 156.14 91.4827 156.118 91.3622 156.096C91.3889 156.216 91.4268 156.299 91.4758 156.346C91.5243 156.369 91.5619 156.44 91.5886 156.56C91.4063 156.996 91.1781 157.529 90.904 158.159C90.6294 158.765 90.3522 159.252 90.0723 159.618C89.9059 159.694 89.7755 159.769 89.6812 159.843C89.5868 159.917 89.59 160.061 89.6908 160.275C89.6438 160.324 89.6092 160.385 89.5868 160.457C89.5644 160.53 89.542 160.602 89.5196 160.675L89.2413 161.113C89.1469 161.187 89.0528 161.273 88.959 161.371C88.8646 161.445 88.8193 161.566 88.823 161.734C88.7302 161.88 88.6487 161.99 88.5783 162.064C88.4354 162.115 88.3167 162.178 88.2224 162.252C88.128 162.326 88.0829 162.459 88.0872 162.651C87.6191 163.189 87.0886 163.621 86.4956 163.947C85.9267 164.271 85.3303 164.441 84.7065 164.455ZM104.666 150.147C104.594 150.149 104.522 150.126 104.449 150.08C104.4 150.033 104.326 149.975 104.229 149.905C104.18 149.882 104.12 149.859 104.047 149.837C103.998 149.79 103.973 149.718 103.97 149.622C103.946 149.599 103.898 149.588 103.826 149.59C103.706 149.592 103.644 149.51 103.64 149.342C103.636 149.15 103.729 149.016 103.919 148.939L104.096 148.791L104.097 148.827L104.237 148.644L104.309 148.643C104.453 148.639 104.547 148.565 104.592 148.42C104.661 148.275 104.802 148.176 105.017 148.123C105.16 148.072 105.28 148.081 105.378 148.151C105.476 148.221 105.596 148.254 105.74 148.251C105.884 148.248 106.039 148.196 106.205 148.096L106.743 147.976C106.814 147.975 106.851 147.998 106.852 148.046C106.853 148.094 106.782 148.156 106.64 148.231C106.522 148.305 106.439 148.367 106.392 148.416L106.357 148.453L106.323 148.526L106.183 148.709C106.042 148.88 105.879 149.088 105.692 149.332C105.529 149.552 105.353 149.736 105.165 149.884C104.952 150.057 104.786 150.144 104.666 150.147ZM99.4478 161.606C99.3039 161.609 99.23 161.527 99.2263 161.359C99.2236 161.239 99.2564 161.094 99.3247 160.925C99.5075 160.512 99.7107 159.932 99.9341 159.183C100.181 158.433 100.491 157.79 100.863 157.253C101.116 156.72 101.344 156.198 101.549 155.69C101.777 155.157 101.993 154.624 102.197 154.091C102.197 154.091 102.173 154.079 102.125 154.057C102.1 154.009 102.086 153.961 102.085 153.913C101.939 153.821 101.78 153.692 101.609 153.528C101.46 153.339 101.444 153.147 101.56 152.953C101.607 152.904 101.642 152.879 101.666 152.878C101.69 152.878 101.702 152.878 101.702 152.878C101.702 152.854 101.689 152.842 101.665 152.842C101.665 152.818 101.665 152.806 101.665 152.806C101.663 152.711 101.709 152.649 101.805 152.623C101.9 152.597 101.947 152.56 101.946 152.512C101.987 152.175 102.269 151.917 102.793 151.737C103.317 151.557 103.783 151.463 104.191 151.454C104.599 151.445 104.804 151.5 104.807 151.62C104.808 151.668 104.738 151.754 104.597 151.877C104.526 151.927 104.408 152.037 104.244 152.209C104.08 152.381 103.928 152.588 103.79 152.831L103.511 153.27C103.489 153.318 103.454 153.379 103.407 153.452C103.385 153.5 103.35 153.549 103.303 153.598C102.934 154.303 102.635 154.897 102.406 155.383C102.177 155.868 101.903 156.486 101.583 157.237C101.538 157.382 101.517 157.479 101.518 157.527C101.521 157.695 101.619 157.777 101.811 157.772C101.955 157.769 102.098 157.73 102.241 157.655L102.597 157.503C103.161 156.962 103.751 156.505 104.367 156.131C104.391 156.131 104.403 156.13 104.403 156.13C104.427 156.106 104.45 156.093 104.474 156.093C104.546 156.091 104.596 156.138 104.622 156.234C104.647 156.305 104.625 156.366 104.554 156.415C103.866 156.815 103.229 157.321 102.643 157.934C102.62 157.983 102.597 158.031 102.574 158.08C102.551 158.128 102.516 158.177 102.469 158.226C102.422 158.275 102.352 158.361 102.259 158.483C102.19 158.604 102.155 158.677 102.156 158.701C102.134 158.774 102.098 158.798 102.05 158.775C102.025 158.752 101.954 158.79 101.836 158.888C101.813 158.913 101.79 158.961 101.767 159.034C101.769 159.106 101.758 159.166 101.735 159.215C101.713 159.287 101.666 159.348 101.595 159.398C101.548 159.423 101.524 159.447 101.525 159.471C101.503 159.568 101.456 159.629 101.385 159.654C101.337 159.655 101.289 159.681 101.243 159.73C101.219 159.754 101.22 159.79 101.245 159.838C101.27 159.885 101.259 159.933 101.212 159.982C101.19 160.055 101.167 160.091 101.143 160.092C101.118 160.068 101.082 160.081 101.035 160.13C100.942 160.228 100.871 160.278 100.823 160.279C100.68 160.33 100.621 160.368 100.645 160.391C100.694 160.414 100.73 160.437 100.755 160.461C100.803 160.46 100.767 160.496 100.649 160.571C100.602 160.596 100.555 160.669 100.51 160.79C100.464 160.887 100.418 160.96 100.371 161.009C100.3 161.059 100.229 161.096 100.157 161.122C100.11 161.147 100.051 161.196 99.9805 161.27C99.7694 161.491 99.5918 161.603 99.4478 161.606ZM105.386 161.474C105.242 161.477 105.168 161.395 105.165 161.227C105.162 161.107 105.195 160.962 105.263 160.792C105.446 160.38 105.661 159.799 105.908 159.05C106.156 158.3 106.465 157.657 106.838 157.121L108.172 153.958C108.172 153.958 108.147 153.947 108.099 153.924C108.05 153.877 108.025 153.829 108.024 153.781C107.878 153.689 107.719 153.56 107.547 153.396C107.399 153.207 107.382 153.015 107.498 152.821C107.545 152.772 107.581 152.747 107.605 152.746C107.629 152.746 107.641 152.746 107.641 152.746L107.639 152.674C107.637 152.578 107.671 152.517 107.743 152.491C107.838 152.465 107.898 152.428 107.92 152.379C107.961 152.042 108.231 151.784 108.731 151.605C109.256 151.425 109.722 151.331 110.129 151.322C110.537 151.313 110.743 151.368 110.745 151.488C110.747 151.56 110.677 151.646 110.535 151.745C110.488 151.794 110.37 151.905 110.182 152.077C110.018 152.249 109.867 152.456 109.728 152.699L109.486 153.137L109.241 153.466C108.873 154.171 108.574 154.765 108.344 155.251C108.115 155.736 107.841 156.354 107.521 157.105C107.453 157.251 107.419 157.372 107.421 157.468C107.424 157.588 107.473 157.646 107.569 157.644C107.617 157.643 107.665 157.63 107.713 157.605C107.784 157.556 107.855 157.518 107.926 157.492C108.115 157.368 108.269 157.257 108.387 157.158C108.528 157.035 108.681 156.911 108.847 156.788C108.917 156.714 108.977 156.713 109.027 156.784C109.076 156.831 109.077 156.903 109.031 157C108.94 157.194 108.87 157.315 108.824 157.364C108.8 157.389 108.765 157.414 108.717 157.439C108.67 157.464 108.564 157.574 108.4 157.77L108.263 158.061C108.216 158.11 108.158 158.207 108.089 158.353C108.044 158.474 108.022 158.547 108.022 158.571C108.023 158.619 108 158.643 107.952 158.644C107.903 158.621 107.832 158.659 107.738 158.757C107.715 158.781 107.704 158.83 107.705 158.902C107.731 158.973 107.72 159.033 107.673 159.082C107.651 159.155 107.616 159.216 107.57 159.265C107.522 159.29 107.499 159.314 107.499 159.338C107.477 159.435 107.431 159.496 107.359 159.521C107.311 159.523 107.264 159.548 107.217 159.597C107.193 159.597 107.181 159.621 107.182 159.669C107.187 159.861 107.165 159.946 107.116 159.923C107.068 159.9 107.02 159.925 106.974 159.998C106.928 160.095 106.869 160.145 106.797 160.146C106.654 160.197 106.595 160.235 106.619 160.258C106.644 160.282 106.68 160.305 106.729 160.328C106.777 160.327 106.742 160.363 106.623 160.438C106.552 160.464 106.494 160.537 106.448 160.658C106.402 160.755 106.356 160.828 106.309 160.877C106.262 160.926 106.203 160.964 106.131 160.989C106.06 161.015 106.001 161.064 105.955 161.137C105.744 161.358 105.554 161.47 105.386 161.474ZM116.105 160.947C116.009 160.949 115.925 160.951 115.853 160.953C115.781 160.931 115.708 160.908 115.636 160.886C115.395 160.843 115.177 160.776 114.983 160.684C114.813 160.592 114.665 160.415 114.539 160.154C114.512 160.035 114.449 159.88 114.349 159.69C114.272 159.5 114.22 159.321 114.193 159.153C114.166 159.034 114.151 158.89 114.147 158.722C114.12 158.603 114.105 158.447 114.101 158.255C114.047 158.016 114.019 157.801 114.014 157.609C114.034 157.417 114.041 157.188 114.035 156.924C114.029 156.66 114.037 156.468 114.058 156.348C114.101 156.131 114.123 156.022 114.123 156.022C114.122 155.998 114.12 155.878 114.115 155.662C114.133 155.374 114.138 155.074 114.131 154.762C114.124 154.45 114.13 154.198 114.15 154.005C114.206 153.284 114.054 152.927 113.694 152.935C113.55 152.938 113.36 153.002 113.122 153.128C113.1 153.2 113.053 153.249 112.982 153.275C112.934 153.276 112.862 153.302 112.767 153.352L112.59 153.464C112.59 153.488 112.567 153.5 112.519 153.501C112.47 153.478 112.446 153.491 112.447 153.539C112.473 153.634 112.463 153.695 112.415 153.72C112.392 153.744 112.356 153.733 112.307 153.686L111.917 153.983C111.918 154.007 111.883 154.056 111.812 154.129L111.777 154.166C111.683 154.264 111.6 154.314 111.528 154.315L111.423 154.426C111.423 154.45 111.4 154.498 111.354 154.571C111.331 154.62 111.271 154.633 111.175 154.611L110.999 154.795C110.906 154.941 110.824 155.027 110.753 155.053C110.705 155.078 110.646 155.103 110.574 155.129L110.294 155.495L110.151 155.534C110.153 155.63 110.049 155.777 109.837 155.974C109.649 156.17 109.52 156.305 109.45 156.378C109.379 156.452 109.308 156.489 109.236 156.491C109.188 156.492 109.164 156.469 109.163 156.421C109.162 156.397 109.22 156.299 109.336 156.129C109.43 156.031 109.57 155.847 109.756 155.579C109.966 155.31 110.083 155.188 110.108 155.211C110.225 155.089 110.307 154.967 110.352 154.846C110.397 154.701 110.478 154.579 110.596 154.48C110.596 154.504 110.597 154.528 110.597 154.552C110.621 154.552 110.633 154.551 110.633 154.551C110.681 154.55 110.74 154.489 110.809 154.367C110.878 154.222 110.925 154.161 110.949 154.184L111.549 153.631C111.549 153.607 111.608 153.558 111.726 153.483C111.821 153.433 111.88 153.407 111.904 153.407C111.928 153.406 111.987 153.333 112.079 153.187L112.327 153.001C112.35 152.953 112.375 152.964 112.4 153.036C112.449 153.083 112.485 153.094 112.509 153.069L112.611 152.815C112.658 152.742 112.728 152.68 112.823 152.63C112.942 152.556 113.06 152.481 113.178 152.406C113.46 152.112 113.673 151.963 113.817 151.96L113.961 151.957C114.27 151.83 114.556 151.763 114.82 151.758C115.204 151.749 115.507 151.886 115.73 152.169C115.779 152.24 115.83 152.371 115.882 152.562C115.931 152.585 115.944 152.621 115.921 152.669C115.921 152.693 115.934 152.729 115.959 152.777C115.984 152.824 116.034 152.883 116.107 152.953C116.18 153 116.218 153.059 116.219 153.131L116.221 153.203C116.223 153.299 116.165 153.384 116.046 153.459C116.169 153.552 116.218 153.611 116.194 153.636C116.194 153.636 116.183 153.672 116.161 153.744L116.1 154.25C116.08 154.418 116.047 154.551 116.001 154.648C115.955 154.721 115.909 154.854 115.866 155.047C115.965 155.189 115.967 155.285 115.872 155.335L115.8 155.337L115.767 155.481C115.768 155.529 115.794 155.577 115.843 155.624L115.739 155.842C115.763 155.818 115.775 155.817 115.775 155.841C115.799 155.841 115.811 155.841 115.811 155.841C115.788 155.889 115.755 155.986 115.71 156.131C115.664 156.252 115.631 156.349 115.608 156.421C115.587 156.542 115.54 156.603 115.468 156.604C115.396 156.606 115.374 156.667 115.4 156.786C115.425 156.809 115.439 156.893 115.442 157.037C115.469 157.157 115.458 157.217 115.41 157.218L115.348 157.651L115.35 157.759C115.353 157.879 115.331 158 115.286 158.121C115.265 158.241 115.243 158.362 115.222 158.482C115.201 158.603 115.18 158.735 115.159 158.88C115.161 159 115.164 159.12 115.167 159.24C115.169 159.336 115.171 159.444 115.174 159.564C115.2 159.659 115.226 159.755 115.252 159.85C115.253 159.874 115.291 159.945 115.365 160.064C115.44 160.182 115.477 160.253 115.478 160.277L115.588 160.383C115.637 160.406 115.709 160.404 115.804 160.378C115.924 160.351 116.008 160.361 116.057 160.408C116.274 160.427 116.547 160.313 116.878 160.066C117.232 159.794 117.549 159.499 117.83 159.181C117.901 159.107 117.972 159.069 118.044 159.068C118.092 159.067 118.128 159.102 118.154 159.173C118.18 159.245 118.158 159.341 118.089 159.463C117.717 160.023 117.366 160.415 117.034 160.639C116.703 160.838 116.393 160.941 116.105 160.947ZM120.827 161.094C120.227 161.108 119.696 160.951 119.232 160.626C118.769 160.3 118.528 159.729 118.51 158.913C118.503 158.601 118.532 158.289 118.597 157.975C118.662 157.638 118.739 157.312 118.828 156.998C118.869 156.685 118.934 156.407 119.025 156.165C119.047 156.069 119.058 156.02 119.058 156.02C119.081 155.996 119.141 155.959 119.235 155.908L119.514 155.47L119.511 155.326C119.487 155.327 119.475 155.327 119.475 155.327C119.474 155.303 119.474 155.291 119.474 155.291C119.472 155.219 119.53 155.134 119.648 155.035C119.766 154.936 119.825 154.887 119.825 154.887C119.846 154.767 119.881 154.706 119.929 154.705C119.977 154.704 120.036 154.666 120.106 154.593L120.502 154.584L120.501 154.512C120.498 154.392 120.437 154.345 120.318 154.372C120.222 154.374 120.173 154.363 120.173 154.339C120.172 154.315 120.207 154.266 120.278 154.193C120.371 154.095 120.43 154.033 120.453 154.009C120.523 153.911 120.581 153.826 120.628 153.753C120.674 153.656 120.744 153.582 120.839 153.532C121.259 152.995 121.516 152.653 121.608 152.507C121.725 152.36 121.843 152.25 121.961 152.175C122.009 152.174 122.046 152.197 122.071 152.244C122.119 152.267 122.12 152.303 122.073 152.352C122.123 152.423 122.159 152.435 122.182 152.386C122.229 152.337 122.252 152.312 122.252 152.312L122.395 152.237C122.345 152.19 122.32 152.131 122.319 152.059C122.316 151.939 122.338 151.842 122.384 151.769C122.43 151.672 122.512 151.575 122.63 151.476C122.772 151.377 122.842 151.315 122.842 151.291C122.985 151.24 123.091 151.19 123.162 151.14C123.257 151.09 123.353 151.064 123.449 151.062C123.617 151.058 123.786 151.114 123.957 151.23C124.418 151.46 124.807 151.691 125.124 151.924C125.442 152.157 125.605 152.49 125.615 152.922C125.625 153.378 125.442 153.778 125.065 154.122C124.712 154.442 124.274 154.716 123.751 154.944C123.228 155.171 122.704 155.363 122.179 155.519C121.678 155.65 121.285 155.755 120.998 155.833C120.831 155.861 120.748 155.935 120.751 156.055C120.777 156.15 120.768 156.258 120.722 156.379L120.479 156.781L120.274 157.29L120.102 157.618C119.937 157.765 119.879 157.875 119.929 157.946C119.978 158.016 120.062 158.003 120.18 157.904C120.205 157.927 120.217 157.963 120.218 158.011C120.221 158.107 120.199 158.228 120.154 158.373C120.109 158.494 120.075 158.59 120.053 158.663C120.031 158.759 120.032 158.807 120.056 158.807C120.104 158.782 120.129 158.829 120.131 158.949L120.178 159.452C120.333 159.905 120.662 160.162 121.168 160.223C121.216 160.221 121.264 160.232 121.313 160.255C121.385 160.254 121.445 160.252 121.493 160.251C121.924 160.242 122.152 160.201 122.174 160.128C122.22 160.055 122.279 160.006 122.351 159.98C122.566 159.927 122.745 159.875 122.887 159.824C123.054 159.772 123.221 159.697 123.386 159.597C123.672 159.471 123.944 159.309 124.204 159.111C124.464 158.913 124.735 158.715 125.019 158.516L125.373 158.257C125.396 158.208 125.395 158.172 125.371 158.149C125.346 158.125 125.346 158.101 125.369 158.077C125.417 158.051 125.453 158.051 125.477 158.074C125.525 158.073 125.561 158.06 125.584 158.036C125.632 158.011 125.679 157.974 125.726 157.925C125.772 157.852 125.819 157.79 125.866 157.741C125.913 157.692 125.936 157.644 125.935 157.596C125.958 157.547 125.992 157.499 126.039 157.449C126.227 157.253 126.414 157.045 126.602 156.825C126.813 156.604 126.988 156.408 127.129 156.237C127.291 155.993 127.421 155.87 127.517 155.868C127.565 155.867 127.589 155.891 127.59 155.939C127.593 156.059 127.513 156.24 127.35 156.484C126.956 157.093 126.501 157.691 125.986 158.279C125.47 158.843 124.906 159.359 124.292 159.829C123.843 160.151 123.309 160.439 122.691 160.693C122.072 160.947 121.451 161.08 120.827 161.094ZM121.238 155.288C121.597 155.256 122.063 155.149 122.635 154.969C123.207 154.764 123.681 154.501 124.058 154.181C124.459 153.836 124.654 153.459 124.645 153.051C124.637 152.668 124.424 152.3 124.009 151.949C123.678 152.197 123.314 152.553 122.916 153.018C122.542 153.458 122.203 153.898 121.901 154.337C121.598 154.752 121.377 155.069 121.238 155.288Z" fill="#080808"/>
<path d="M71.5285 125.728L127.528 125.537L127.337 69.5375L71.3376 69.7283L71.5285 125.728Z" fill="white"/>
</g>
<defs>
<clipPath id="clip0_1281_59">
<rect width="202" height="201" fill="white"/>
</clipPath>
</defs>
</svg>
